<svg xmlns="http://www.w3.org/2000/svg" width="88" height="88" viewBox="0 0 88 88">
  <g opacity="0.05" fill="none" stroke="#2c241c" stroke-width="0.45" stroke-linecap="round">
    <path d="M0 44 Q11 32 22 44 T44 44 T66 44 T88 44" />
    <path d="M44 0 Q32 11 44 22 T44 44 T44 66 T44 88" />
    <path d="M0 14 Q9 6 18 14 T36 14 T54 14 T72 14 T88 14" />
    <path d="M0 74 Q9 66 18 74 T72 74 T88 74" />
    <circle cx="22" cy="44" r="0.9" fill="#2c241c" stroke="none" />
    <circle cx="66" cy="44" r="0.9" fill="#2c241c" stroke="none" />
    <circle cx="44" cy="22" r="0.9" fill="#2c241c" stroke="none" />
    <circle cx="44" cy="66" r="0.9" fill="#2c241c" stroke="none" />
  </g>
</svg>
